<svg width="18" height="18" viewBox="0 0 18 18" fill="none" xmlns="http://www.w3.org/2000/svg">
<path d="M13.4989 0.0037452L11.1648 0C8.54241 0 6.84772 1.73871 6.84772 4.42982V6.47227H4.50082C4.29801 6.47227 4.13379 6.63668 4.13379 6.83949V9.79876C4.13379 10.0016 4.2982 10.1658 4.50082 10.1658H6.84772V17.633C6.84772 17.8358 7.01195 18 7.21475 18H10.2768C10.4796 18 10.6438 17.8356 10.6438 17.633V10.1658H13.3879C13.5907 10.1658 13.7549 10.0016 13.7549 9.79876L13.756 6.83949C13.756 6.74211 13.7173 6.64886 13.6486 6.57994C13.5798 6.51103 13.4862 6.47227 13.3888 6.47227H10.6438V4.74086C10.6438 3.90868 10.8421 3.48622 11.9262 3.48622L13.4986 3.48566C13.7012 3.48566 13.8654 3.32124 13.8654 3.11863V0.370775C13.8654 0.168347 13.7014 0.00411972 13.4989 0.0037452Z" fill="#3B5998"/>
</svg>
