<svg width="14" height="22" viewBox="0 0 14 22" fill="none" xmlns="http://www.w3.org/2000/svg">
<g clip-path="url(#clip0_1387_4471)">
<path d="M3.50125 21.9989C5.43287 21.9989 7.00055 20.3562 7.00055 18.3322V14.6656H3.50125C1.56964 14.6656 0.00195312 16.3082 0.00195312 18.3322C0.00195312 20.3562 1.56964 21.9989 3.50125 21.9989Z" fill="#0ACF83"/>
<path d="M0.00195312 10.9994C0.00195312 8.97544 1.56964 7.33277 3.50125 7.33277H7.00055V14.6661H3.50125C1.56964 14.6661 0.00195312 13.0234 0.00195312 10.9994Z" fill="#A259FF"/>
<path d="M0.00292969 3.6666C0.00292969 1.6426 1.57062 -6.86646e-05 3.50223 -6.86646e-05H7.00153V7.33326H3.50223C1.57062 7.33326 0.00292969 5.6906 0.00292969 3.6666Z" fill="#F24E1E"/>
<path d="M7 -6.10352e-05H10.4993C12.4309 -6.10352e-05 13.9986 1.64261 13.9986 3.6666C13.9986 5.6906 12.4309 7.33327 10.4993 7.33327H7V-6.10352e-05Z" fill="#FF7262"/>
<path d="M13.9986 10.9994C13.9986 13.0234 12.4309 14.6661 10.4993 14.6661C8.56769 14.6661 7 13.0234 7 10.9994C7 8.97544 8.56769 7.33277 10.4993 7.33277C12.4309 7.33277 13.9986 8.97544 13.9986 10.9994Z" fill="#1ABCFE"/>
</g>
<defs>
<clipPath id="clip0_1387_4471">
<rect width="14" height="22" fill="white"/>
</clipPath>
</defs>
</svg>
