<svg width="121" height="120" viewBox="0 0 121 120" fill="none" xmlns="http://www.w3.org/2000/svg">
<path d="M60.2533 0.461149C48.4305 0.467157 36.8749 3.96429 27.0475 10.5104C17.2201 17.0565 9.56226 26.3577 5.04204 37.238C0.52183 48.1182 -0.657736 60.089 1.65248 71.6369C3.96269 83.1848 9.65894 93.7912 18.0211 102.115C26.3832 110.439 37.0357 116.107 48.6318 118.402C60.2278 120.697 72.2468 119.516 83.1691 115.008C94.0913 110.501 103.426 102.869 109.994 93.0786C116.562 83.2877 120.068 71.7772 120.068 60.0024C120.051 44.2107 113.743 29.0709 102.529 17.9074C91.3139 6.74388 76.1092 0.46919 60.2533 0.461149ZM60.2533 108.516C50.6009 108.516 41.1654 105.666 33.1397 100.325C25.1141 94.9841 18.8589 87.393 15.1651 78.5116C11.4713 69.6302 10.5049 59.8573 12.3879 50.4289C14.271 41.0004 18.9191 32.3398 25.7443 25.5423C32.5695 18.7447 41.2654 14.1155 50.7323 12.2401C60.1991 10.3647 70.0118 11.3272 78.9294 15.006C87.847 18.6848 95.469 24.9146 100.832 32.9077C106.194 40.9008 109.056 50.2981 109.056 59.9112C109.056 72.8021 103.915 85.165 94.7622 94.2802C85.6099 103.395 73.1966 108.516 60.2533 108.516Z" fill="#E7F7FD"/>
<path d="M60.2226 119.999C59.4461 120.012 58.675 119.868 57.9552 119.578C57.2354 119.288 56.5815 118.856 56.0324 118.309C55.4833 117.763 55.0501 117.111 54.7586 116.394C54.4672 115.678 54.3233 114.91 54.3357 114.136C54.3347 112.561 54.9481 111.047 56.0463 109.914C57.1446 108.78 58.6419 108.116 60.2226 108.061C71.6985 107.988 82.7887 103.926 91.5785 96.5777C99.0539 90.1656 104.394 81.6403 106.889 72.134C109.384 62.6278 108.917 52.5905 105.548 43.3552C102.062 34.1733 95.8656 26.2581 87.775 20.6513C79.6844 15.0445 70.0788 12.0089 60.2226 11.9441C59.1774 11.9423 58.1521 11.659 57.2554 11.1242C56.3587 10.5894 55.6238 9.82309 55.1287 8.90632C54.6134 7.97607 54.3431 6.93095 54.3431 5.8685C54.3431 4.80606 54.6134 3.76093 55.1287 2.83068C55.6515 1.93299 56.4112 1.19506 57.3253 0.697007C58.2394 0.198952 59.2731 -0.0401985 60.3141 0.00551549C70.0393 0.0143428 79.6177 2.368 88.2309 6.86537C96.8442 11.3627 104.236 17.8701 109.775 25.8314C115.314 33.7926 118.835 42.9711 120.038 52.5825C121.241 62.1939 120.089 71.9524 116.682 81.0241C112.267 92.383 104.539 102.165 94.4929 109.112C84.4469 116.058 72.5429 119.85 60.3141 119.999H60.2226Z" fill="#0FAFE9"/>
</svg>
